<svg width="32" height="32" viewBox="0 0 32 32" fill="none" xmlns="http://www.w3.org/2000/svg">
  <rect width="32" height="32" rx="6" fill="#0f1419"/>
  <path d="M16 4C18.2091 4 20 5.79086 20 8V10H22C23.1046 10 24 10.8954 24 12V26C24 27.1046 23.1046 28 22 28H10C8.89543 28 8 27.1046 8 26V12C8 10.8954 8.89543 10 10 10H12V8C12 5.79086 13.7909 4 16 4Z" fill="#00b4d8"/>
  <path d="M14 10H18V8C18 6.89543 17.1046 6 16 6C14.8954 6 14 6.89543 14 8V10Z" fill="#0f1419"/>
  <circle cx="16" cy="18" r="3" fill="#ffffff"/>
</svg> 